# xmcd CD database file
#
# Track frame offsets:
#	150
#	23565
#	42290
#	64110
#	80430
#	102495
#	124952
#	145727
#	166027
#	188930
#	206650
#
# Disc length: 3032 seconds
#
# Revision: 2
# Processed by: cddbd v1.4PL0 Copyright (c) Steve Scherf et al.
# Submitted via: CDex 1.40Beta9
#
DISCID=930bd60b
DTITLE=Annette - Deeper
DYEAR=1900
DGENRE=Easy Listening
TTITLE0=Rain Dance
TTITLE1=You Take Me There
TTITLE2=God Bless The Children
TTITLE3=Let It Shine
TTITLE4=Images Of You
TTITLE5=Let'S Give It All This Time
TTITLE6=Love Will Change The World
TTITLE7=Is This Love
TTITLE8=Without You
TTITLE9=In A Heartbeat
TTITLE10=Calabria Mia
EXTD=ID3G: 98
EXTT0=
EXTT1=
EXTT2=
EXTT3=
EXTT4=
EXTT5=
EXTT6=
EXTT7=
EXTT8=
EXTT9=
EXTT10=
PLAYORDER=
